<svg xmlns="http://www.w3.org/2000/svg" version="1.1" xmlns:xlink="http://www.w3.org/1999/xlink" width="800px" height="800px"><svg width="800px" height="800px" viewBox="-1.6 -1.6 19.20 19.20" xmlns="http://www.w3.org/2000/svg" fill="#000000" transform="rotate(0)">

<g id="SvgjsG1005" stroke-width="0"></g>

<g id="SvgjsG1004" stroke-linecap="round" stroke-linejoin="round" stroke="#CCCCCC" stroke-width="0.032"></g>

<g id="SvgjsG1003"> <path d="M3.994 1c-1.258.015-2.179-.03-2.931.385a1.88 1.88 0 0 0-.838.998C.06 2.822 0 3.343 0 4v8c0 .658.06 1.179.225 1.617.164.439.461.79.838.998.752.416 1.673.37 2.931.385H12.006c1.258-.014 2.179.03 2.932-.385a1.88 1.88 0 0 0 .838-.998c.164-.438.224-.96.224-1.617V4c0-.658-.06-1.178-.225-1.617a1.88 1.88 0 0 0-.837-.998c-.753-.416-1.674-.37-2.932-.385H3.998zm1.5 4a.5.5 0 0 1 .487.361l1.605 5.537.945-2.57a.5.5 0 0 1 .916-.05L10.31 10H15v1h-5a.5.5 0 0 1-.447-.277l-.483-.965L8 12.672a.5.5 0 0 1-.95-.033L5.493 7.266 4.48 10.645A.5.5 0 0 1 4 11H1v-1h2.629l1.393-4.644A.5.5 0 0 1 5.494 5z" style="line-height:normal;font-variant-ligatures:normal;font-variant-position:normal;font-variant-caps:normal;font-variant-numeric:normal;font-variant-alternates:normal;font-feature-settings:normal;text-indent:0;text-align:start;text-decoration-line:none;text-decoration-style:solid;text-decoration-color:#000000;text-transform:none;text-orientation:mixed;shape-padding:0;isolation:auto;mix-blend-mode:normal;marker:none" color="#000000" font-weight="400" font-family="sans-serif" white-space="normal" overflow="visible" fill="gray"></path> </g>

</svg><style>@media (prefers-color-scheme: light) { :root { filter: none; } }
@media (prefers-color-scheme: dark) { :root { filter: none; } }
</style></svg>